<svg id="Layer_1" data-name="Layer 1" xmlns="http://www.w3.org/2000/svg" viewBox="0 0 480 74"><defs><style>.cls-1{fill:#fff;}.cls-2{fill:#f1c334;}</style></defs><path class="cls-1" d="M86.16,49.22V50.4Q86,61.83,77.48,67.74a35.33,35.33,0,0,1-20.62,6.05A37.18,37.18,0,0,1,44.8,71.85a29.56,29.56,0,0,1-9.95-5.62,25,25,0,0,1-6.34-8.11,22.15,22.15,0,0,1-2.33-9.56H45.75c.09,1.67,1.11,3.22,3.06,4.67s4.63,2.16,8,2.16c4.07,0,7-.76,8.8-2.3l.07-.06c1.09-1.1,1.35-2.17.78-3.22a2.41,2.41,0,0,0-1.38-1.25,19.06,19.06,0,0,0-2.82-.92q-.08,0-1.38-.33c-.88-.22-1.84-.45-2.89-.69s-2.37-.6-3.94-1.08-3.15-1-4.7-1.61-3.21-1.32-5-2.17a53,53,0,0,1-5-2.73A29.21,29.21,0,0,1,35,35.59a27,27,0,0,1-3.71-4.18,19,19,0,0,1-2.5-4.92,17.47,17.47,0,0,1-.95-5.78,18.46,18.46,0,0,1,2.49-8.81,22,22,0,0,1,6.57-6.63A32.27,32.27,0,0,1,55.21.14q11.57,0,19.65,6a23.83,23.83,0,0,1,6.9,8,21.67,21.67,0,0,1,2.49,10H64.67a4.08,4.08,0,0,0-1-2.6,6.63,6.63,0,0,0-2.14-1.64A11.79,11.79,0,0,0,58.83,19a17.51,17.51,0,0,0-2.27-.32c-.5,0-1,0-1.35,0a17.15,17.15,0,0,0-6,1,4.21,4.21,0,0,0-1.52,1.05,2.08,2.08,0,0,0-.52,2.63c.66,1.49,3.87,3.15,9.66,5q1.5.46,5.09,1.45c2.38.65,4.36,1.23,5.91,1.74s3.34,1.16,5.35,2a26.5,26.5,0,0,1,5.42,2.89A22.76,22.76,0,0,1,82.81,40a14.52,14.52,0,0,1,2.89,5.65A19.47,19.47,0,0,1,86.16,49.22Z"/><path class="cls-1" d="M89.77.8h53.74V19.19H125.77v53H107.51v-53H89.77Z"/><path class="cls-1" d="M185.88,72.15,173.66,49.41h-5.19V72.15H150.28V1h31.47a24.47,24.47,0,0,1,6.43.85A23.36,23.36,0,0,1,194,4.28a24.77,24.77,0,0,1,4.89,3.81,23.68,23.68,0,0,1,3.78,4.9,25,25,0,0,1,2.43,5.78,23.33,23.33,0,0,1,.89,6.4,23.67,23.67,0,0,1-3.58,12.68,24.1,24.1,0,0,1-9.5,8.87l13.73,25.43Zm-17.41-53v12h13.28a5.94,5.94,0,0,0,6-5.94A5.83,5.83,0,0,0,186,21a5.72,5.72,0,0,0-4.23-1.78Z"/><path class="cls-1" d="M231.54,53.88h34.17V72.15H213.34V1h51V19.19H231.54v8h21.75v18.2H231.54Z"/><path class="cls-1" d="M321.28,72l-3.94-11.56H294.81L290.87,72H271.81l24.31-71H315.9l24.63,71ZM301.05,42.12H311.1l-5-14.65Z"/><path class="cls-1" d="M392.83.8h19.71V72.15H394.27V34.24l-14.38,24.5-14.46-24.5V72.15H347.17V.8h19.71l13,22Z"/><path class="cls-1" d="M428.07,9.33a3.19,3.19,0,0,0,.45,1.64,3.67,3.67,0,0,0,1.26,1.28L427.55,16a8,8,0,0,1-2.76-2.86,7.61,7.61,0,0,1-.31-6.9,7.77,7.77,0,0,1,1.83-2.51A8.27,8.27,0,0,1,429,2a8.85,8.85,0,0,1,5.28-.32,8.55,8.55,0,0,1,3.68,2,7.77,7.77,0,0,1,1.83,2.52,7.43,7.43,0,0,1,.68,3.14,7.56,7.56,0,0,1-1,3.74,7.89,7.89,0,0,1-2.7,2.84l-2.28-3.68A3.48,3.48,0,0,0,435.74,11a3.22,3.22,0,0,0,.45-1.64A3.26,3.26,0,0,0,435,6.81a4.45,4.45,0,0,0-5.74,0A3.26,3.26,0,0,0,428.07,9.33Z"/><path class="cls-1" d="M424.29,27.39l2.6-.91V21.27l-2.6-.91V16l15.95,5.62v4.57l-15.95,5.7Zm6.7-4.68V25l3.29-1.16Z"/><path class="cls-1" d="M440.27,29.76V42.18h-4.13v-4.1H424.25V33.86h11.89v-4.1Z"/><path class="cls-1" d="M428.07,51.4a3.22,3.22,0,0,0,.45,1.64,3.67,3.67,0,0,0,1.26,1.28L427.55,58a8,8,0,0,1-2.76-2.86,7.61,7.61,0,0,1-.31-6.9,7.81,7.81,0,0,1,1.83-2.52A8.41,8.41,0,0,1,429,44.07a8.67,8.67,0,0,1,3.15-.58,8.4,8.4,0,0,1,2.13.26,8.12,8.12,0,0,1,2,.76,9,9,0,0,1,1.71,1.22,7.7,7.7,0,0,1,1.83,2.53,7.43,7.43,0,0,1,.68,3.14,7.56,7.56,0,0,1-1,3.74,7.89,7.89,0,0,1-2.7,2.84L434.5,54.3A3.5,3.5,0,0,0,435.74,53a3.15,3.15,0,0,0,.45-1.63A3.26,3.26,0,0,0,435,48.88a4.45,4.45,0,0,0-5.74,0A3.26,3.26,0,0,0,428.07,51.4Z"/><path class="cls-1" d="M440.27,67.92v4.22h-16V67.92h6v-4.2h-6V59.49h16v4.23h-5.93v4.2Z"/><path class="cls-2" d="M58.59,31.74,9.64,3.48A6,6,0,0,0,.6,8.7V65.23a6,6,0,0,0,9,5.22l49-28.26A6,6,0,0,0,58.59,31.74Z"/></svg>