<svg id="Layer_1" data-name="Layer 1" xmlns="http://www.w3.org/2000/svg" viewBox="0 0 1430 343"><defs><style>.cls-1{fill:#fff;}.cls-2{fill:#f1c332;}.cls-3{fill:#f1c334;}</style></defs><path class="cls-1" d="M281.84,199.86v3.89q-.43,37.62-28.53,57.08-28.76,19.89-67.88,19.88a122.34,122.34,0,0,1-39.67-6.37A97.91,97.91,0,0,1,113,255.85a82.43,82.43,0,0,1-20.86-26.7,73.13,73.13,0,0,1-7.68-31.45h64.42q.44,8.22,10.06,15.35t26.48,7.13q20.1,0,29-7.56l.21-.22q5.4-5.4,2.6-10.59a8.07,8.07,0,0,0-4.54-4.11,65.13,65.13,0,0,0-9.3-3c-.14,0-1.66-.35-4.54-1.08s-6.05-1.47-9.51-2.27-7.78-2-13-3.56-10.34-3.35-15.46-5.3-10.56-4.32-16.32-7.13a184,184,0,0,1-16.32-9A97.93,97.93,0,0,1,113.44,155a89.75,89.75,0,0,1-12.21-13.73A63.47,63.47,0,0,1,93,125.07a57.94,57.94,0,0,1-3.13-19q.86-16.86,8.21-29t21.62-21.83Q145,38.38,180,38.38q38.05,0,64.64,19.67a77.94,77.94,0,0,1,22.7,26.27,71.33,71.33,0,0,1,8.21,32.75H211.15a13.4,13.4,0,0,0-3.35-8.54,21.74,21.74,0,0,0-7-5.41,38,38,0,0,0-8.87-2.81,56.31,56.31,0,0,0-7.45-1.08c-1.66-.07-3.14-.11-4.44-.11a57,57,0,0,0-19.67,3.25,13.93,13.93,0,0,0-5,3.46c-2.74,2.73-3.32,5.62-1.73,8.64q3.24,7.35,31.78,16.43,5,1.51,16.75,4.76t19.46,5.73q7.67,2.49,17.62,6.48a89.63,89.63,0,0,1,17.83,9.51,75.28,75.28,0,0,1,13.73,12.22,47.55,47.55,0,0,1,9.51,18.59A60.87,60.87,0,0,1,281.84,199.86Z"/><path class="cls-1" d="M293.73,40.54H470.56v60.53H412.2V275.31H352.1V101.07H293.73Z"/><path class="cls-1" d="M610,275.31l-40.21-74.8H552.71v74.8H492.83V41.19H596.38A80.78,80.78,0,0,1,617.56,44a76.27,76.27,0,0,1,19.13,8A81.39,81.39,0,0,1,652.8,64.54a78.26,78.26,0,0,1,12.43,16.1,83.5,83.5,0,0,1,8,19,79,79,0,0,1-8.86,62.8,79.44,79.44,0,0,1-31.24,29.19l45.18,83.66ZM552.71,101.07v39.34h43.67a19.55,19.55,0,0,0,19.67-19.56,19.21,19.21,0,0,0-5.73-13.94,18.81,18.81,0,0,0-13.94-5.84Z"/><path class="cls-1" d="M760.24,215.21H872.65v60.1H700.36V41.19h168v59.88H760.24v26.37h71.55v59.88H760.24Z"/><path class="cls-1" d="M1055.53,274.66l-13-38.05H968.41l-13,38.05H892.75L972.74,41h65.07l81.06,233.69ZM989,176.52H1022l-16.43-48.21Z"/><path class="cls-1" d="M1291,40.54h64.85V275.31h-60.1V150.57l-47.34,80.64-47.56-80.64V275.31h-60.1V40.54h64.86l42.8,72.42Z"/><path class="cls-2" d="M1389.83,67.9a10.66,10.66,0,0,0,1.48,5.4,11.94,11.94,0,0,0,4.16,4.2l-7.34,12.19a26.16,26.16,0,0,1-9.08-9.42,25.13,25.13,0,0,1-1-22.71,25.78,25.78,0,0,1,6-8.27,27.49,27.49,0,0,1,8.81-5.5,28.41,28.41,0,0,1,10.35-1.92,28.81,28.81,0,0,1,7,.85,26.49,26.49,0,0,1,6.49,2.52,29.42,29.42,0,0,1,5.63,4,25.73,25.73,0,0,1,6,8.3,25.09,25.09,0,0,1-1,22.64,25.82,25.82,0,0,1-8.89,9.34L1411,77.45a11.9,11.9,0,0,0,4.08-4.18,10.48,10.48,0,0,0,1.46-5.37,10.67,10.67,0,0,0-3.91-8.29,14.65,14.65,0,0,0-18.89,0A10.67,10.67,0,0,0,1389.83,67.9Z"/><path class="cls-2" d="M1377.4,127.32l8.55-3V107.18l-8.55-3V89.69l52.5,18.49v15L1377.4,142Zm22-15.39v7.64l10.83-3.79Z"/><path class="cls-2" d="M1430,135.11V176H1416.4V162.5h-39.15V148.61h39.15v-13.5Z"/><path class="cls-2" d="M1389.83,206.32a10.66,10.66,0,0,0,1.48,5.4,11.94,11.94,0,0,0,4.16,4.2l-7.34,12.19a26.16,26.16,0,0,1-9.08-9.42,25.13,25.13,0,0,1-1-22.71,25.78,25.78,0,0,1,6-8.27,27.49,27.49,0,0,1,8.81-5.5,28.41,28.41,0,0,1,10.35-1.92,28.81,28.81,0,0,1,7,.85,26.49,26.49,0,0,1,6.49,2.52,29.42,29.42,0,0,1,5.63,4,25.73,25.73,0,0,1,6,8.3,25.09,25.09,0,0,1-1,22.64,25.82,25.82,0,0,1-8.89,9.34L1411,215.87a12,12,0,0,0,4.08-4.17,10.54,10.54,0,0,0,1.46-5.38,10.67,10.67,0,0,0-3.91-8.29,14.65,14.65,0,0,0-18.89,0A10.67,10.67,0,0,0,1389.83,206.32Z"/><path class="cls-2" d="M1430,260.69v13.9h-52.74v-13.9H1397V246.85h-19.77V233H1430v13.89h-19.52v13.84Z"/><path class="cls-3" d="M202.32,155,18.88,49.1A12.39,12.39,0,0,0,.3,59.83V271.65a12.39,12.39,0,0,0,18.58,10.73L202.32,176.46A12.37,12.37,0,0,0,202.32,155Z"/></svg>